<svg width="28" height="29" viewBox="0 0 28 29" fill="none" xmlns="http://www.w3.org/2000/svg">
    <path d="M26 16.9961H16V26.9961C16 27.5265 15.7893 28.0352 15.4142 28.4103C15.0391 28.7854 14.5304 28.9961 14 28.9961C13.4696 28.9961 12.9609 28.7854 12.5858 28.4103C12.2107 28.0352 12 27.5265 12 26.9961V16.9961H2C1.46957 16.9961 0.96086 16.7854 0.585787 16.4103C0.210714 16.0352 0 15.5265 0 14.9961C0 14.4657 0.210714 13.957 0.585787 13.5819C0.96086 13.2068 1.46957 12.9961 2 12.9961H12V2.99609C12 2.46566 12.2107 1.95695 12.5858 1.58188C12.9609 1.20681 13.4696 0.996094 14 0.996094C14.5304 0.996094 15.0391 1.20681 15.4142 1.58188C15.7893 1.95695 16 2.46566 16 2.99609V12.9961H26C26.5304 12.9961 27.0391 13.2068 27.4142 13.5819C27.7893 13.957 28 14.4657 28 14.9961C28 15.5265 27.7893 16.0352 27.4142 16.4103C27.0391 16.7854 26.5304 16.9961 26 16.9961Z" fill="#092E5C"/>
</svg>