<svg width="296" height="296" viewBox="0 0 296 296" fill="none" xmlns="http://www.w3.org/2000/svg">
    <path d="M113.875 196.975L73.4792 156.579C72.4228 155.51 71.1648 154.661 69.7779 154.082C68.3911 153.502 66.903 153.204 65.4 153.204C63.897 153.204 62.4089 153.502 61.0221 154.082C59.6352 154.661 58.3772 155.51 57.3208 156.579C56.2516 157.635 55.4027 158.893 54.8233 160.28C54.2439 161.667 53.9456 163.155 53.9456 164.658C53.9456 166.161 54.2439 167.649 54.8233 169.036C55.4027 170.423 56.2516 171.681 57.3208 172.737L105.68 221.097C110.182 225.598 117.453 225.598 121.954 221.097L244.296 98.8707C245.365 97.8144 246.214 96.5563 246.793 95.1695C247.373 93.7826 247.671 92.2946 247.671 90.7916C247.671 89.2885 247.373 87.8005 246.793 86.4136C246.214 85.0268 245.365 83.7687 244.296 82.7124C243.24 81.6432 241.981 80.7943 240.595 80.2149C239.208 79.6355 237.72 79.3372 236.217 79.3372C234.714 79.3372 233.226 79.6355 231.839 80.2149C230.452 80.7943 229.194 81.6432 228.137 82.7124L113.875 196.975Z" fill="#27ED52"/>
    <circle cx="148" cy="148" r="147.5" stroke="#27ED52"/>
</svg>