<svg width="296" height="296" viewBox="0 0 296 296" fill="none" xmlns="http://www.w3.org/2000/svg">
    <path d="M230.951 221.862C231.548 222.458 232.021 223.167 232.344 223.947C232.667 224.726 232.833 225.562 232.833 226.406C232.833 227.25 232.667 228.086 232.344 228.866C232.021 229.645 231.548 230.354 230.951 230.951C230.354 231.548 229.645 232.021 228.866 232.344C228.086 232.667 227.25 232.833 226.406 232.833C225.562 232.833 224.727 232.667 223.947 232.344C223.167 232.021 222.459 231.548 221.862 230.951L148.5 157.697L75.1383 230.951C73.933 232.156 72.2983 232.833 70.5937 232.833C68.8892 232.833 67.2545 232.156 66.0492 230.951C64.8439 229.745 64.1668 228.111 64.1668 226.406C64.1668 224.702 64.8439 223.067 66.0492 221.862L139.303 148.5L66.0492 75.1382C64.8439 73.9329 64.1668 72.2982 64.1668 70.5937C64.1668 68.8892 64.8439 67.2544 66.0492 66.0492C67.2545 64.8439 68.8892 64.1667 70.5937 64.1667C72.2983 64.1667 73.933 64.8439 75.1383 66.0492L148.5 139.303L221.862 66.0492C223.067 64.8439 224.702 64.1667 226.406 64.1667C228.111 64.1667 229.745 64.8439 230.951 66.0492C232.156 67.2544 232.833 68.8892 232.833 70.5937C232.833 72.2982 232.156 73.9329 230.951 75.1382L157.697 148.5L230.951 221.862Z" fill="#ED2727"/>
    <circle cx="148" cy="148" r="147.5" stroke="#ED2727"/>
</svg>